<svg width="23" height="22" viewBox="0 0 23 22" fill="none" xmlns="http://www.w3.org/2000/svg">
<path d="M10.4062 21.3415L1.05623 11.9915C0.914565 11.8499 0.813981 11.6964 0.754481 11.5311C0.694981 11.3659 0.665704 11.1888 0.666648 10.9999C0.666648 10.811 0.696398 10.6339 0.755898 10.4686C0.815398 10.3034 0.915509 10.1499 1.05623 10.0082L10.4062 0.658215C10.666 0.398493 10.9908 0.262966 11.3809 0.251633C11.771 0.240299 12.1072 0.375827 12.3896 0.658215C12.6729 0.917938 12.8207 1.24283 12.833 1.63288C12.8453 2.02294 12.7093 2.35916 12.425 2.64155L5.48331 9.58321H21.3146C21.716 9.58321 22.0526 9.71921 22.3246 9.99121C22.5966 10.2632 22.7322 10.5994 22.7312 10.9999C22.7312 11.4013 22.5957 11.738 22.3246 12.01C22.0536 12.282 21.7169 12.4175 21.3146 12.4165H5.48331L12.425 19.3582C12.6847 19.6179 12.8207 19.9485 12.833 20.3499C12.8453 20.7513 12.7093 21.0818 12.425 21.3415C12.1653 21.6249 11.8347 21.7665 11.4333 21.7665C11.0319 21.7665 10.6896 21.6249 10.4062 21.3415Z" fill="white"/>
</svg>
