<svg width="44" height="44" viewBox="0 0 44 44" fill="none" xmlns="http://www.w3.org/2000/svg">
<path d="M38.9548 43.397H4.32831C1.8756 43.397 0 41.5214 0 39.0687V7.32776C0 4.87505 1.58705 2.99945 3.60692 2.99945H5.77108V5.88499H3.60692C3.31837 5.88499 2.88554 6.4621 2.88554 7.32776V39.0687C2.88554 39.9343 3.46265 40.5114 4.32831 40.5114H38.9548C39.8204 40.5114 40.3975 39.9343 40.3975 39.0687V7.32776C40.3975 6.4621 39.9647 5.88499 39.6762 5.88499H37.512V2.99945H39.6762C41.696 2.99945 43.2831 4.87505 43.2831 7.32776V39.0687C43.2831 41.5214 41.4075 43.397 38.9548 43.397Z" fill="#807EE1"/>
<path d="M10.0996 8.77039C9.23397 8.77039 8.65686 8.19328 8.65686 7.32762V1.55654C8.65686 0.690877 9.23397 0.11377 10.0996 0.11377C10.9653 0.11377 11.5424 0.690877 11.5424 1.55654V7.32762C11.5424 8.19328 10.9653 8.77039 10.0996 8.77039Z" fill="#807EE1"/>
<path d="M33.1837 8.77039C32.3181 8.77039 31.741 8.19328 31.741 7.32762V1.55654C31.741 0.690877 32.3181 0.11377 33.1837 0.11377C34.0494 0.11377 34.6265 0.690877 34.6265 1.55654V7.32762C34.6265 8.19328 34.0494 8.77039 33.1837 8.77039Z" fill="#807EE1"/>
<path d="M14.4277 2.99945H28.8554V5.88499H14.4277V2.99945Z" fill="#807EE1"/>
<path d="M2.88562 11.6561H40.3976V14.5416H2.88562V11.6561Z" fill="#807EE1"/>
<path d="M34.6265 17.4274H37.512V20.313H34.6265V17.4274Z" fill="#807EE1"/>
<path d="M28.8553 17.4274H31.7409V20.313H28.8553V17.4274Z" fill="#807EE1"/>
<path d="M23.0844 17.4274H25.9699V20.313H23.0844V17.4274Z" fill="#807EE1"/>
<path d="M17.3132 17.4274H20.1988V20.313H17.3132V17.4274Z" fill="#807EE1"/>
<path d="M11.5422 17.4274H14.4278V20.313H11.5422V17.4274Z" fill="#807EE1"/>
<path d="M34.6265 23.1983H37.512V26.0838H34.6265V23.1983Z" fill="#807EE1"/>
<path d="M28.8553 23.1983H31.7409V26.0838H28.8553V23.1983Z" fill="#807EE1"/>
<path d="M23.0844 23.1983H25.9699V26.0838H23.0844V23.1983Z" fill="#807EE1"/>
<path d="M17.3132 23.1983H20.1988V26.0838H17.3132V23.1983Z" fill="#807EE1"/>
<path d="M11.5422 23.1983H14.4278V26.0838H11.5422V23.1983Z" fill="#807EE1"/>
<path d="M5.77112 23.1983H8.65666V26.0838H5.77112V23.1983Z" fill="#807EE1"/>
<path d="M34.6265 28.9692H37.512V31.8548H34.6265V28.9692Z" fill="#807EE1"/>
<path d="M28.8553 28.9692H31.7409V31.8548H28.8553V28.9692Z" fill="#807EE1"/>
<path d="M23.0844 28.9692H25.9699V31.8548H23.0844V28.9692Z" fill="#807EE1"/>
<path d="M17.3132 28.9692H20.1988V31.8548H17.3132V28.9692Z" fill="#807EE1"/>
<path d="M11.5422 28.9692H14.4278V31.8548H11.5422V28.9692Z" fill="#807EE1"/>
<path d="M5.77112 28.9692H8.65666V31.8548H5.77112V28.9692Z" fill="#807EE1"/>
<path d="M28.8553 34.7402H31.7409V37.6257H28.8553V34.7402Z" fill="#807EE1"/>
<path d="M23.0844 34.7402H25.9699V37.6257H23.0844V34.7402Z" fill="#807EE1"/>
<path d="M17.3132 34.7402H20.1988V37.6257H17.3132V34.7402Z" fill="#807EE1"/>
<path d="M11.5422 34.7402H14.4278V37.6257H11.5422V34.7402Z" fill="#807EE1"/>
<path d="M5.77112 34.7402H8.65666V37.6257H5.77112V34.7402Z" fill="#807EE1"/>
</svg>
