<svg width="54" height="55" viewBox="0 0 54 55" fill="none" xmlns="http://www.w3.org/2000/svg">
<path d="M19.5268 19.9003C19.5268 17.9553 20.2697 16.0901 21.5921 14.7148C22.9145 13.3396 24.708 12.5669 26.5781 12.5669C28.4483 12.5669 30.2418 13.3396 31.5642 14.7148C32.8866 16.0901 33.6295 17.9553 33.6295 19.9003C33.6295 21.8452 32.8866 23.7105 31.5642 25.0857C30.2418 26.461 28.4483 27.2336 26.5781 27.2336C24.708 27.2336 22.9145 26.461 21.5921 25.0857C20.2697 23.7105 19.5268 21.8452 19.5268 19.9003ZM26.5781 9.30768C23.8768 9.30768 21.2862 10.4237 19.3761 12.4102C17.4659 14.3967 16.3929 17.0909 16.3929 19.9003C16.3929 22.7096 17.4659 25.4039 19.3761 27.3904C21.2862 29.3769 23.8768 30.4929 26.5781 30.4929C29.2794 30.4929 31.8701 29.3769 33.7802 27.3904C35.6903 25.4039 36.7634 22.7096 36.7634 19.9003C36.7634 17.0909 35.6903 14.3967 33.7802 12.4102C31.8701 10.4237 29.2794 9.30768 26.5781 9.30768ZM10.125 40.2706C10.125 38.5418 10.7854 36.8838 11.9608 35.6614C13.1363 34.4389 14.7305 33.7521 16.3929 33.7521H36.7634C38.4257 33.7521 40.02 34.4389 41.1954 35.6614C42.3709 36.8838 43.0312 38.5418 43.0312 40.2706V40.5444C43.0312 40.577 43.0312 40.6194 43.025 40.6748C42.9869 41.3201 42.8978 41.9611 42.7586 42.5912C42.4922 43.7906 41.9626 45.3942 40.8939 47.0043C38.697 50.3092 34.4537 53.3077 26.5781 53.3077C18.7026 53.3077 14.4592 50.3092 12.2623 47.0043C11.1054 45.2516 10.384 43.2282 10.1626 41.1148C10.1439 40.9252 10.1313 40.7349 10.125 40.5444V40.2706ZM13.2589 40.4662V40.5249L13.2809 40.7954C13.4507 42.3578 13.9866 43.853 14.8416 45.1497C16.3678 47.4443 19.5675 50.0484 26.5781 50.0484C33.5887 50.0484 36.7885 47.4443 38.3147 45.1497C39.1699 43.8531 39.7058 42.3578 39.8754 40.7954C39.8857 40.7056 39.8919 40.6153 39.8942 40.5249L39.8973 40.4695V40.2706C39.8973 39.4062 39.5671 38.5772 38.9794 37.966C38.3917 37.3548 37.5946 37.0114 36.7634 37.0114H16.3929C15.5617 37.0114 14.7646 37.3548 14.1768 37.966C13.5891 38.5772 13.2589 39.4062 13.2589 40.2706V40.4662Z" fill="#807EE1"/>
</svg>
