<svg width="64" height="65" viewBox="0 0 64 65" fill="none" xmlns="http://www.w3.org/2000/svg">
<path d="M14.4 21.9375C14.4 19.9981 15.1586 18.1381 16.5089 16.7668C17.8591 15.3954 19.6905 14.625 21.6 14.625C23.5096 14.625 25.341 15.3954 26.6912 16.7668C28.0415 18.1381 28.8 19.9981 28.8 21.9375C28.8 23.8769 28.0415 25.7369 26.6912 27.1082C25.341 28.4796 23.5096 29.25 21.6 29.25C19.6905 29.25 17.8591 28.4796 16.5089 27.1082C15.1586 25.7369 14.4 23.8769 14.4 21.9375ZM21.6 11.375C18.8418 11.375 16.1965 12.4878 14.2461 14.4687C12.2958 16.4495 11.2 19.1362 11.2 21.9375C11.2 24.7388 12.2958 27.4255 14.2461 29.4063C16.1965 31.3872 18.8418 32.5 21.6 32.5C24.3583 32.5 27.0036 31.3872 28.954 29.4063C30.9043 27.4255 32 24.7388 32 21.9375C32 19.1362 30.9043 16.4495 28.954 14.4687C27.0036 12.4878 24.3583 11.375 21.6 11.375ZM39.7985 49.2213C41.5201 49.9363 43.6865 50.375 46.4001 50.375C52.4193 50.375 55.7472 48.204 57.5009 45.7145C58.4157 44.4081 58.9894 42.8873 59.168 41.2945C59.1841 41.1465 59.1947 40.998 59.2001 40.8493V40.625C59.2001 39.9848 59.0759 39.3509 58.8347 38.7594C58.5934 38.168 58.2399 37.6305 57.7942 37.1779C57.3484 36.7252 56.8193 36.3661 56.2369 36.1211C55.6546 35.8761 55.0304 35.75 54.4001 35.75H39.584C40.3521 36.6925 40.9281 37.7943 41.264 39H54.4001C54.8244 39 55.2314 39.1712 55.5314 39.476C55.8315 39.7807 56 40.194 56 40.625V40.8005L55.9841 40.963C55.8615 41.9935 55.4875 42.9765 54.8961 43.823C53.8497 45.3148 51.5776 47.125 46.4001 47.125C44.0576 47.125 42.3104 46.7545 41.0016 46.2118C40.7393 47.1217 40.3585 48.1488 39.7985 49.2213ZM4.80005 42.25C4.80005 40.5261 5.47433 38.8728 6.67457 37.6538C7.8748 36.4348 9.50266 35.75 11.2 35.75H32C33.6974 35.75 35.3253 36.4348 36.5255 37.6538C37.7258 38.8728 38.4001 40.5261 38.4001 42.25V42.523C38.4001 42.5555 38.4001 42.5977 38.3937 42.653C38.3547 43.2965 38.2637 43.9356 38.1217 44.564C37.8497 45.76 37.3088 47.359 36.2176 48.9645C33.9744 52.26 29.6416 55.25 21.6 55.25C13.5584 55.25 9.22565 52.26 6.98245 48.9645C5.80109 47.2169 5.06447 45.1992 4.83845 43.0917C4.81933 42.9027 4.80652 42.713 4.80005 42.523V42.25ZM8.00005 42.445V42.5035L8.02245 42.7733C8.19584 44.3312 8.74304 45.8221 9.61605 47.1152C11.1744 49.4032 14.4416 52 21.6 52C28.7584 52 32.0256 49.4032 33.584 47.1152C34.4573 45.8223 35.0045 44.3313 35.1776 42.7733C35.1881 42.6837 35.1946 42.5937 35.1968 42.5035L35.2 42.4482V42.25C35.2 41.388 34.8629 40.5614 34.2628 39.9519C33.6627 39.3424 32.8487 39 32 39H11.2C10.3514 39 9.53742 39.3424 8.93731 39.9519C8.33719 40.5614 8.00005 41.388 8.00005 42.25V42.445ZM41.6 24.375C41.6 23.0821 42.1058 21.8421 43.0059 20.9279C43.9061 20.0136 45.127 19.5 46.4001 19.5C47.6731 19.5 48.894 20.0136 49.7942 20.9279C50.6943 21.8421 51.2001 23.0821 51.2001 24.375C51.2001 25.6679 50.6943 26.9079 49.7942 27.8221C48.894 28.7364 47.6731 29.25 46.4001 29.25C45.127 29.25 43.9061 28.7364 43.0059 27.8221C42.1058 26.9079 41.6 25.6679 41.6 24.375ZM46.4001 16.25C44.2783 16.25 42.2435 17.106 40.7432 18.6298C39.2429 20.1535 38.4001 22.2201 38.4001 24.375C38.4001 26.5299 39.2429 28.5965 40.7432 30.1202C42.2435 31.644 44.2783 32.5 46.4001 32.5C48.5218 32.5 50.5566 31.644 52.0569 30.1202C53.5572 28.5965 54.4001 26.5299 54.4001 24.375C54.4001 22.2201 53.5572 20.1535 52.0569 18.6298C50.5566 17.106 48.5218 16.25 46.4001 16.25Z" fill="#807EE1"/>
</svg>
