<svg width="26" height="31" viewBox="0 0 26 31" fill="none" xmlns="http://www.w3.org/2000/svg">
<mask id="mask0_295_457" style="mask-type:luminance" maskUnits="userSpaceOnUse" x="0" y="0" width="26" height="31">
<path d="M13 12.2C13.7354 12.2 14.4636 12.0552 15.143 11.7737C15.8225 11.4923 16.4398 11.0798 16.9598 10.5598C17.4798 10.0398 17.8923 9.42245 18.1737 8.74303C18.4552 8.0636 18.6 7.3354 18.6 6.6C18.6 5.8646 18.4552 5.1364 18.1737 4.45697C17.8923 3.77755 17.4798 3.16021 16.9598 2.6402C16.4398 2.12019 15.8225 1.7077 15.143 1.42627C14.4636 1.14485 13.7354 1 13 1C11.5148 1 10.0904 1.59 9.0402 2.6402C7.99 3.69041 7.4 5.11479 7.4 6.6C7.4 8.08521 7.99 9.50959 9.0402 10.5598C10.0904 11.61 11.5148 12.2 13 12.2ZM1 28.84V29.8H25V28.84C25 25.256 25 23.464 24.3024 22.0944C23.6888 20.8902 22.7098 19.9112 21.5056 19.2976C20.136 18.6 18.344 18.6 14.76 18.6H11.24C7.656 18.6 5.864 18.6 4.4944 19.2976C3.29022 19.9112 2.31118 20.8902 1.6976 22.0944C1 23.464 1 25.256 1 28.84Z" fill="white" stroke="white" stroke-width="1.66667" stroke-linecap="round" stroke-linejoin="round"/>
</mask>
<g mask="url(#mask0_295_457)">
<path d="M-2.20001 -3.7998H36.2V34.6002H-2.20001V-3.7998Z" fill="#807EE1"/>
</g>
</svg>
