<svg width="54" height="49" viewBox="0 0 54 49" fill="none" xmlns="http://www.w3.org/2000/svg">
<mask id="mask0_236_817" style="mask-type:luminance" maskUnits="userSpaceOnUse" x="0" y="0" width="54" height="49">
<path d="M20.9385 18.9545C22.1174 18.9545 23.2847 18.7223 24.3739 18.2711C25.4631 17.82 26.4527 17.1587 27.2863 16.3251C28.1199 15.4915 28.7812 14.5018 29.2323 13.4127C29.6835 12.3235 29.9157 11.1561 29.9157 9.97723C29.9157 8.79832 29.6835 7.63096 29.2323 6.54179C28.7812 5.45263 28.1199 4.46298 27.2863 3.62937C26.4527 2.79576 25.4631 2.1345 24.3739 1.68335C23.2847 1.2322 22.1174 1 20.9385 1C18.5576 1 16.2742 1.94581 14.5906 3.62937C12.907 5.31293 11.9612 7.59632 11.9612 9.97723C11.9612 12.3581 12.907 14.6415 14.5906 16.3251C16.2742 18.0086 18.5576 18.9545 20.9385 18.9545ZM1.70154 45.6297V47.1686H40.1754V45.6297C40.1754 39.8842 40.1754 37.0115 39.0571 34.8159C38.0735 32.8855 36.504 31.3161 34.5736 30.3325C32.378 29.2142 29.5053 29.2142 23.7599 29.2142H18.117C12.3716 29.2142 9.4989 29.2142 7.30333 30.3325C5.37293 31.3161 3.80346 32.8855 2.81984 34.8159C1.70154 37.0115 1.70154 39.8842 1.70154 45.6297Z" fill="white" stroke="white" stroke-width="1.66667" stroke-linecap="round" stroke-linejoin="round"/>
<path d="M45.3052 9.97708V25.3666M37.6105 17.6719H53" stroke="white" stroke-width="1.66667" stroke-linecap="round" stroke-linejoin="round"/>
</mask>
<g mask="url(#mask0_236_817)">
<path d="M-3.42834 -6.69467H58.1298V54.8635H-3.42834V-6.69467Z" fill="#807EE1"/>
</g>
</svg>
