<svg width="52" height="52" viewBox="0 0 52 52" fill="none" xmlns="http://www.w3.org/2000/svg">
<mask id="path-1-inside-1_236_812" fill="white">
<path d="M13 47.6667C11.8083 47.6667 10.7878 47.242 9.93846 46.3927C9.08913 45.5433 8.66519 44.5236 8.66663 43.3333V17.3333C8.66663 16.1417 9.0913 15.1212 9.94063 14.2718C10.79 13.4225 11.8097 12.9986 13 13H17.3333C17.3333 10.6167 18.1819 8.5764 19.8791 6.87918C21.5764 5.18195 23.6166 4.33334 26 4.33334C28.3833 4.33334 30.4236 5.18195 32.1208 6.87918C33.818 8.5764 34.6666 10.6167 34.6666 13H39C40.1916 13 41.2121 13.4247 42.0615 14.274C42.9108 15.1233 43.3347 16.1431 43.3333 17.3333V43.3333C43.3333 44.525 42.9086 45.5455 42.0593 46.3948C41.21 47.2442 40.1902 47.6681 39 47.6667H13ZM13 43.3333H39V17.3333H34.6666V21.6667C34.6666 22.2806 34.4586 22.7955 34.0426 23.2115C33.6266 23.6275 33.1124 23.8348 32.5 23.8333C31.8861 23.8333 31.3711 23.6253 30.9551 23.2093C30.5391 22.7933 30.3319 22.2791 30.3333 21.6667V17.3333H21.6666V21.6667C21.6666 22.2806 21.4586 22.7955 21.0426 23.2115C20.6266 23.6275 20.1124 23.8348 19.5 23.8333C18.8861 23.8333 18.3711 23.6253 17.9551 23.2093C17.5391 22.7933 17.3319 22.2791 17.3333 21.6667V17.3333H13V43.3333ZM21.6666 13H30.3333C30.3333 11.8083 29.9086 10.7878 29.0593 9.93851C28.21 9.08918 27.1902 8.66523 26 8.66668C24.8083 8.66668 23.7878 9.09134 22.9385 9.94068C22.0891 10.79 21.6652 11.8098 21.6666 13Z"/>
</mask>
<path d="M13 47.6667C11.8083 47.6667 10.7878 47.242 9.93846 46.3927C9.08913 45.5433 8.66519 44.5236 8.66663 43.3333V17.3333C8.66663 16.1417 9.0913 15.1212 9.94063 14.2718C10.79 13.4225 11.8097 12.9986 13 13H17.3333C17.3333 10.6167 18.1819 8.5764 19.8791 6.87918C21.5764 5.18195 23.6166 4.33334 26 4.33334C28.3833 4.33334 30.4236 5.18195 32.1208 6.87918C33.818 8.5764 34.6666 10.6167 34.6666 13H39C40.1916 13 41.2121 13.4247 42.0615 14.274C42.9108 15.1233 43.3347 16.1431 43.3333 17.3333V43.3333C43.3333 44.525 42.9086 45.5455 42.0593 46.3948C41.21 47.2442 40.1902 47.6681 39 47.6667H13ZM13 43.3333H39V17.3333H34.6666V21.6667C34.6666 22.2806 34.4586 22.7955 34.0426 23.2115C33.6266 23.6275 33.1124 23.8348 32.5 23.8333C31.8861 23.8333 31.3711 23.6253 30.9551 23.2093C30.5391 22.7933 30.3319 22.2791 30.3333 21.6667V17.3333H21.6666V21.6667C21.6666 22.2806 21.4586 22.7955 21.0426 23.2115C20.6266 23.6275 20.1124 23.8348 19.5 23.8333C18.8861 23.8333 18.3711 23.6253 17.9551 23.2093C17.5391 22.7933 17.3319 22.2791 17.3333 21.6667V17.3333H13V43.3333ZM21.6666 13H30.3333C30.3333 11.8083 29.9086 10.7878 29.0593 9.93851C28.21 9.08918 27.1902 8.66523 26 8.66668C24.8083 8.66668 23.7878 9.09134 22.9385 9.94068C22.0891 10.79 21.6652 11.8098 21.6666 13Z" fill="#807EE1" stroke="white" mask="url(#path-1-inside-1_236_812)"/>
</svg>
