<svg width="18" height="18" viewBox="0 0 18 18" fill="none" xmlns="http://www.w3.org/2000/svg">
<path d="M7.83329 10.5001L6.04163 8.70841C5.88885 8.55564 5.6944 8.47925 5.45829 8.47925C5.22218 8.47925 5.02774 8.55564 4.87496 8.70841C4.72218 8.86119 4.64579 9.05564 4.64579 9.29175C4.64579 9.52786 4.72218 9.7223 4.87496 9.87508L7.24996 12.2501C7.41663 12.4167 7.61107 12.5001 7.83329 12.5001C8.05551 12.5001 8.24996 12.4167 8.41663 12.2501L13.125 7.54175C13.2777 7.38897 13.3541 7.19453 13.3541 6.95841C13.3541 6.7223 13.2777 6.52786 13.125 6.37508C12.9722 6.2223 12.7777 6.14591 12.5416 6.14591C12.3055 6.14591 12.1111 6.2223 11.9583 6.37508L7.83329 10.5001ZM8.99996 17.3334C7.84718 17.3334 6.76385 17.1145 5.74996 16.6767C4.73607 16.239 3.85413 15.6454 3.10413 14.8959C2.35413 14.1459 1.76051 13.264 1.32329 12.2501C0.886071 11.2362 0.667182 10.1529 0.666626 9.00008C0.666626 7.8473 0.885515 6.76397 1.32329 5.75008C1.76107 4.73619 2.35468 3.85425 3.10413 3.10425C3.85413 2.35425 4.73607 1.76064 5.74996 1.32341C6.76385 0.886193 7.84718 0.667304 8.99996 0.666748C10.1527 0.666748 11.2361 0.885637 12.25 1.32341C13.2638 1.76119 14.1458 2.3548 14.8958 3.10425C15.6458 3.85425 16.2397 4.73619 16.6775 5.75008C17.1152 6.76397 17.3338 7.8473 17.3333 9.00008C17.3333 10.1529 17.1144 11.2362 16.6766 12.2501C16.2388 13.264 15.6452 14.1459 14.8958 14.8959C14.1458 15.6459 13.2638 16.2398 12.25 16.6776C11.2361 17.1154 10.1527 17.334 8.99996 17.3334Z" fill="#807EE1"/>
</svg>
