<svg width="54" height="54" viewBox="0 0 54 54" fill="none" xmlns="http://www.w3.org/2000/svg">
<path d="M27 5.0625C24.2241 5.0625 21.9375 7.34906 21.9375 10.125V22.518L7.75237 28.8461L6.75 29.268V37.3342L8.64844 37.125L21.9375 35.6484V38.7602L17.6124 41.6576L16.875 42.1301V49.3071L18.8797 48.8852L27 47.25L35.1219 48.8869L37.125 49.3087V42.1369L36.3859 41.661L32.0625 38.7585V35.6484L45.3516 37.125L47.25 37.3359V29.2697L46.2476 28.8478L32.0625 22.518V10.125C32.0625 7.34906 29.7759 5.0625 27 5.0625ZM27 8.4375C27.9534 8.4375 28.6875 9.17156 28.6875 10.125V24.732L29.6899 25.1539L43.875 31.482V33.5407L30.5859 32.0625L28.6875 31.8516V40.6046L29.4266 41.0805L33.75 43.9796V45.1946L27.3156 43.929L27 43.8244L26.6828 43.9256L20.25 45.1912V43.9762L24.5751 41.0788L25.3125 40.6029V31.8516L23.4141 32.0625L10.125 33.5391V31.4803L24.3101 25.1522L25.3125 24.7303V10.125C25.3125 9.17156 26.0466 8.4375 27 8.4375Z" fill="#807EE1"/>
<line x1="47.7475" y1="7.35355" x2="8.35354" y2="46.7475" stroke="#FF0000"/>
</svg>
