<svg width="27" height="28" viewBox="0 0 27 28" fill="none" xmlns="http://www.w3.org/2000/svg">
<path d="M24.3 27.136H2.7C1.17 27.136 0 25.966 0 24.436V4.63604C0 3.10604 0.99 1.93604 2.25 1.93604H3.6V3.73604H2.25C2.07 3.73604 1.8 4.09604 1.8 4.63604V24.436C1.8 24.976 2.16 25.336 2.7 25.336H24.3C24.84 25.336 25.2 24.976 25.2 24.436V4.63604C25.2 4.09604 24.93 3.73604 24.75 3.73604H23.4V1.93604H24.75C26.01 1.93604 27 3.10604 27 4.63604V24.436C27 25.966 25.83 27.136 24.3 27.136Z" fill="#807EE1"/>
<path d="M6.30015 5.53574C5.76015 5.53574 5.40015 5.17574 5.40015 4.63574V1.03574C5.40015 0.495742 5.76015 0.135742 6.30015 0.135742C6.84015 0.135742 7.20015 0.495742 7.20015 1.03574V4.63574C7.20015 5.17574 6.84015 5.53574 6.30015 5.53574Z" fill="#807EE1"/>
<path d="M20.7 5.53574C20.16 5.53574 19.8 5.17574 19.8 4.63574V1.03574C19.8 0.495742 20.16 0.135742 20.7 0.135742C21.24 0.135742 21.6 0.495742 21.6 1.03574V4.63574C21.6 5.17574 21.24 5.53574 20.7 5.53574Z" fill="#807EE1"/>
<path d="M9 1.93604H18V3.73604H9V1.93604Z" fill="#807EE1"/>
<path d="M1.80005 7.33594H25.2V9.13594H1.80005V7.33594Z" fill="#807EE1"/>
<path d="M21.6 10.936H23.4V12.736H21.6V10.936Z" fill="#807EE1"/>
<path d="M18 10.936H19.8V12.736H18V10.936Z" fill="#807EE1"/>
<path d="M14.4 10.936H16.2V12.736H14.4V10.936Z" fill="#807EE1"/>
<path d="M10.8 10.936H12.6V12.736H10.8V10.936Z" fill="#807EE1"/>
<path d="M7.20007 10.936H9.00007V12.736H7.20007V10.936Z" fill="#807EE1"/>
<path d="M21.6 14.5361H23.4V16.3361H21.6V14.5361Z" fill="#807EE1"/>
<path d="M18 14.5361H19.8V16.3361H18V14.5361Z" fill="#807EE1"/>
<path d="M14.4 14.5361H16.2V16.3361H14.4V14.5361Z" fill="#807EE1"/>
<path d="M10.8 14.5361H12.6V16.3361H10.8V14.5361Z" fill="#807EE1"/>
<path d="M7.20007 14.5361H9.00007V16.3361H7.20007V14.5361Z" fill="#807EE1"/>
<path d="M3.6001 14.5361H5.4001V16.3361H3.6001V14.5361Z" fill="#807EE1"/>
<path d="M21.6 18.1357H23.4V19.9357H21.6V18.1357Z" fill="#807EE1"/>
<path d="M18 18.1357H19.8V19.9357H18V18.1357Z" fill="#807EE1"/>
<path d="M14.4 18.1357H16.2V19.9357H14.4V18.1357Z" fill="#807EE1"/>
<path d="M10.8 18.1357H12.6V19.9357H10.8V18.1357Z" fill="#807EE1"/>
<path d="M7.20007 18.1357H9.00007V19.9357H7.20007V18.1357Z" fill="#807EE1"/>
<path d="M3.6001 18.1357H5.4001V19.9357H3.6001V18.1357Z" fill="#807EE1"/>
<path d="M18 21.7358H19.8V23.5358H18V21.7358Z" fill="#807EE1"/>
<path d="M14.4 21.7358H16.2V23.5358H14.4V21.7358Z" fill="#807EE1"/>
<path d="M10.8 21.7358H12.6V23.5358H10.8V21.7358Z" fill="#807EE1"/>
<path d="M7.20007 21.7358H9.00007V23.5358H7.20007V21.7358Z" fill="#807EE1"/>
<path d="M3.6001 21.7358H5.4001V23.5358H3.6001V21.7358Z" fill="#807EE1"/>
</svg>
