<svg width="24" height="24" viewBox="0 0 24 24" fill="none" xmlns="http://www.w3.org/2000/svg">
<path d="M10.2894 8.85667L7.35693 0.799766L9.55434 0L14.6842 7.25753L10.2894 8.85667Z" fill="#42A5B2"/>
<path d="M1.33301 10.4579L18.9411 4.04922C19.3862 3.88708 19.8808 3.93619 20.2854 4.18251L21.7765 5.09063C22.5857 4.79637 23.4805 5.2134 23.7748 6.02252C24.0694 6.83164 23.6524 7.72612 22.8429 8.02077L10.3908 12.5528L2.13277 12.6553L1.33301 10.4579Z" fill="#62C4C3"/>
<path d="M1.46507 6.26221L0 6.79538L1.33294 10.4579L4.26308 9.39151L1.46507 6.26221Z" fill="#42A5B2"/>
<path d="M10.823 10.3217L13.7551 18.379L15.9533 17.5792L15.2174 8.72217L10.823 10.3217Z" fill="#42A5B2"/>
<path d="M19.3125 5.15869L21.1439 4.4928L21.4103 5.22538L19.5789 5.89126L19.3125 5.15869Z" fill="#3A4249"/>
<path d="M16.748 6.09082L17.4802 5.82444L17.7466 6.55657L17.0144 6.82295L16.748 6.09082Z" fill="#3A4249"/>
<path d="M15.2832 6.62402L16.0153 6.35765L16.2817 7.08977L15.5496 7.35615L15.2832 6.62402Z" fill="#3A4249"/>
<path d="M13.8184 7.15723L14.5505 6.89085L14.8169 7.62298L14.0847 7.88936L13.8184 7.15723Z" fill="#3A4249"/>
<path d="M12.3535 7.69043L13.0856 7.42405L13.352 8.15618L12.6199 8.42256L12.3535 7.69043Z" fill="#3A4249"/>
<path d="M10.8884 8.22363L11.6206 7.95726L11.8869 8.68938L11.1548 8.95576L10.8884 8.22363Z" fill="#3A4249"/>
<path d="M9.42358 8.75684L10.1557 8.49046L10.4221 9.22259L9.68996 9.48897L9.42358 8.75684Z" fill="#3A4249"/>
<path d="M7.9585 9.29004L8.69063 9.02366L8.957 9.75579L8.22487 10.0222L7.9585 9.29004Z" fill="#3A4249"/>
<path d="M6.4939 9.82422L7.22631 9.5574L7.49314 10.2898L6.76072 10.5566L6.4939 9.82422Z" fill="#3A4249"/>
<path d="M5.02856 10.3574L5.76098 10.0906L6.0278 10.823L5.29539 11.0898L5.02856 10.3574Z" fill="#3A4249"/>
<path d="M13.4933 20.4924H6.86755C5.57787 20.4924 4.52905 19.4436 4.52905 18.1539C4.52905 16.8642 5.57787 15.8154 6.86755 15.8154H9.5958V16.5949H6.86755C6.00776 16.5949 5.30855 17.2941 5.30855 18.1539C5.30855 19.0137 6.00776 19.7129 6.86755 19.7129H13.4933V20.4924Z" fill="#3A4249"/>
<path d="M14.2729 19.7129H15.0524V20.4924H14.2729V19.7129Z" fill="#3A4249"/>
<path d="M19.1448 23.2206H6.86768V22.4411H19.1448C19.6823 22.4411 20.1192 22.0038 20.1192 21.4668C20.1192 20.9297 19.6823 20.4924 19.1448 20.4924H15.8319V19.7129H19.1448C20.1118 19.7129 20.8987 20.4998 20.8987 21.4668C20.8987 22.4337 20.1118 23.2206 19.1448 23.2206Z" fill="#3A4249"/>
<path d="M2.19067 22.4409H6.08817V23.2204H2.19067V22.4409Z" fill="#3A4249"/>
<path d="M1.41144 24.0001C2.05719 24.0001 2.58068 23.4766 2.58068 22.8309C2.58068 22.1851 2.05719 21.6616 1.41144 21.6616C0.765678 21.6616 0.242188 22.1851 0.242188 22.8309C0.242188 23.4766 0.765678 24.0001 1.41144 24.0001Z" fill="#EFBC2E"/>
<path d="M10.3755 17.3741C11.0213 17.3741 11.5448 16.8507 11.5448 16.2049C11.5448 15.5591 11.0213 15.0356 10.3755 15.0356C9.72979 15.0356 9.2063 15.5591 9.2063 16.2049C9.2063 16.8507 9.72979 17.3741 10.3755 17.3741Z" fill="#EFBC2E"/>
</svg>
