<svg width="23" height="24" viewBox="0 0 23 24" fill="none" xmlns="http://www.w3.org/2000/svg">
<path d="M21.691 14.8514V20.9913H0.699707V14.4491C1.4344 13.382 2.97376 12.2975 6.31487 11.8776C12.1574 11.1429 19.4344 13.9068 21.691 14.8514Z" fill="url(#paint0_radial_88_191)"/>
<path opacity="0.2" d="M8.36151 11.7549C7.66181 11.7549 6.97959 11.7899 6.31487 11.8773C2.97376 12.2972 1.4344 13.3817 0.699707 14.4488V15.7082C1.01458 14.5187 2.16909 12.9269 6.38484 12.4021C6.99708 12.3321 7.6793 12.2797 8.36151 12.2797C13.8192 12.2797 19.9417 14.6937 21.691 15.4284V14.8511C19.6968 14.0289 13.7493 11.7549 8.36151 11.7549Z" fill="#434343"/>
<path d="M8.51903 16.6181C9.61072 16.6181 10.4957 16.2579 10.4957 15.8135C10.4957 15.369 9.61072 15.0088 8.51903 15.0088C7.42735 15.0088 6.54236 15.369 6.54236 15.8135C6.54236 16.2579 7.42735 16.6181 8.51903 16.6181Z" fill="#1E5F30"/>
<mask id="mask0_88_191" style="mask-type:luminance" maskUnits="userSpaceOnUse" x="6" y="15" width="5" height="2">
<path d="M8.51903 16.6181C9.61072 16.6181 10.4957 16.2579 10.4957 15.8135C10.4957 15.369 9.61072 15.0088 8.51903 15.0088C7.42735 15.0088 6.54236 15.369 6.54236 15.8135C6.54236 16.2579 7.42735 16.6181 8.51903 16.6181Z" fill="white"/>
</mask>
<g mask="url(#mask0_88_191)">
<path d="M8.51894 16.8281C9.45605 16.8281 10.2157 16.5149 10.2157 16.1284C10.2157 15.742 9.45605 15.4287 8.51894 15.4287C7.58182 15.4287 6.82214 15.742 6.82214 16.1284C6.82214 16.5149 7.58182 16.8281 8.51894 16.8281Z" fill="#FEF5A0"/>
</g>
<mask id="mask1_88_191" style="mask-type:luminance" maskUnits="userSpaceOnUse" x="0" y="11" width="23" height="13">
<path d="M6.31487 11.8776C-0.682216 12.7522 0.157434 16.5656 0.0174927 17.0729H0V24H22.3907V15.1487C22.3907 15.1487 13.312 11.0029 6.31487 11.8776Z" fill="white"/>
</mask>
<g mask="url(#mask1_88_191)">
<g opacity="0.4">
<path d="M8.01166 15.6211C7.88921 15.6911 7.83674 15.8485 7.90671 15.971C7.95918 16.0584 8.04665 16.1109 8.13411 16.1109C8.1691 16.1109 8.22158 16.0934 8.25656 16.0759L9.41108 15.5337C9.07872 15.4637 8.78134 15.4287 8.41399 15.4287L8.01166 15.6211Z" fill="#757576"/>
<path d="M13.6618 12.3149L8.43152 15.0263L9.4286 15.1313L14.484 12.4899C14.2041 12.4199 13.9417 12.3674 13.6618 12.3149Z" fill="#757576"/>
<path d="M9.41115 15.5511L8.41406 15.4286V15.0088L9.44613 15.0963L9.41115 15.5511Z" fill="#434343"/>
</g>
</g>
<path d="M7.9242 16.1809C7.73178 16.1809 7.57434 16.0584 7.57434 15.901V0.507422C7.57434 0.349988 7.73178 0.227539 7.9242 0.227539C8.11661 0.227539 8.27405 0.349988 8.27405 0.507422V15.901C8.27405 16.0584 8.11661 16.1809 7.9242 16.1809Z" fill="#FCB64E"/>
<path d="M12.9097 3.39365L8.18665 4.98548C8.09918 5.02047 8.01172 4.9505 8.01172 4.86304V1.22455C8.01172 1.1196 8.11668 1.06712 8.20414 1.1021L12.9272 3.14875C13.0321 3.18374 13.0321 3.35866 12.9097 3.39365Z" fill="url(#paint1_linear_88_191)"/>
<path opacity="0.2" d="M7.9242 0.402466C8.02915 0.402466 8.09912 0.454944 8.09912 0.507422V1.11967C8.09912 1.18964 8.13411 1.25961 8.20408 1.2771L12.7697 3.25378L8.22157 4.79314C8.1516 4.81063 8.09912 4.8806 8.09912 4.96806V15.901C8.09912 15.9535 8.02915 16.006 7.9242 16.006C7.81924 16.006 7.74927 15.9535 7.74927 15.901V0.507422C7.74927 0.454944 7.81924 0.402466 7.9242 0.402466ZM7.9242 0.227539C7.73178 0.227539 7.57434 0.349988 7.57434 0.507422V15.901C7.57434 16.0584 7.73178 16.1809 7.9242 16.1809C8.11661 16.1809 8.27405 16.0584 8.27405 15.901V4.95057L12.9271 3.37623C13.0496 3.34124 13.0496 3.18381 12.9446 3.13133L8.27405 1.11967V0.507422C8.27405 0.349988 8.11661 0.227539 7.9242 0.227539Z" fill="#434343"/>
<defs>
<radialGradient id="paint0_radial_88_191" cx="0" cy="0" r="1" gradientUnits="userSpaceOnUse" gradientTransform="translate(6.50669 14.7662) scale(9.56036)">
<stop offset="0.2639" stop-color="#9CCC65"/>
<stop offset="0.8315" stop-color="#7CB342"/>
</radialGradient>
<linearGradient id="paint1_linear_88_191" x1="8.60128" y1="1.18213" x2="10.5692" y2="4.15589" gradientUnits="userSpaceOnUse">
<stop offset="0.2716" stop-color="#EF5451"/>
<stop offset="0.8315" stop-color="#E53A35"/>
</linearGradient>
</defs>
</svg>
