<svg width="27" height="33" viewBox="0 0 27 33" fill="none" xmlns="http://www.w3.org/2000/svg">
<path d="M19.6094 0C14.833 0 13.078 4.8811 13.078 4.8811C13.078 4.8811 11.3471 0 6.53793 0C2.92344 0 -1.19683 2.86456 0.324836 9.37633C1.8465 15.8881 13.0911 24 13.0911 24C13.0911 24 24.2943 15.8881 25.8182 9.37633C27.3398 2.86456 23.516 0 19.6094 0Z" fill="#F44336"/>
<path d="M5.80107 0.486148C9.55073 0.486148 11.4125 4.51703 12.0142 6.14988C12.0992 6.38314 12.424 6.38968 12.5221 6.16296L13.0715 4.87892C12.2976 2.40676 10.1699 0 6.53792 0C5.0337 0 3.44445 0.497048 2.20837 1.54564C3.30057 0.828413 4.58025 0.486148 5.80107 0.486148Z" fill="#CC3333"/>
<path d="M19.6095 0C18.4563 0 17.4055 0.250704 16.5858 0.756472C17.1613 0.534108 17.8742 0.486148 18.5805 0.486148C22.1144 0.486148 25.2776 3.16541 23.8497 9.35889C22.6245 14.676 15.4652 21.1267 13.2787 23.588C13.1391 23.7449 13.0912 23.9978 13.0912 23.9978C13.0912 23.9978 24.2944 15.8859 25.8182 9.37415C27.3399 2.86457 23.5227 0 19.6095 0Z" fill="#CC3333"/>
<path d="M2.83408 3.45545C3.65159 2.43519 5.11222 1.59152 6.35048 2.56382C7.01975 3.0892 6.72762 4.16614 6.12811 4.61959C5.2561 5.28232 4.49745 5.68127 3.96552 6.71896C3.64723 7.34245 3.45539 8.0248 3.35729 8.72023C3.31805 8.99492 2.95834 9.0625 2.82318 8.82052C1.90321 7.18985 1.6416 4.94441 2.83408 3.45545Z" fill="#FF8A80"/>
<path d="M15.9404 5.60053C15.5567 5.60053 15.2864 5.22993 15.4259 4.8724C15.6853 4.21403 16.0211 3.57746 16.4244 3.01065C17.0217 2.17352 18.1575 1.68519 18.8769 2.19314C19.6138 2.71199 19.5178 3.74968 19.0012 4.25109C17.8915 5.32585 16.4919 5.60053 15.9404 5.60053Z" fill="#FF8A80"/>
<path d="M11.2894 17.8567L8.35693 9.79977L10.5543 9L15.6842 16.2575L11.2894 17.8567Z" fill="#42A5B2"/>
<path d="M2.33289 19.4579L19.941 13.0492C20.3861 12.8871 20.8807 12.9362 21.2852 13.1825L22.7764 14.0906C23.5855 13.7964 24.4804 14.2134 24.7747 15.0225C25.0693 15.8316 24.6523 16.7261 23.8428 17.0208L11.3907 21.5528L3.13265 21.6553L2.33289 19.4579Z" fill="#62C4C3"/>
<path d="M2.46507 15.2622L1 15.7954L2.33294 19.4579L5.26308 18.3915L2.46507 15.2622Z" fill="#42A5B2"/>
<path d="M11.8229 19.3217L14.755 27.379L16.9531 26.5792L16.2173 17.7222L11.8229 19.3217Z" fill="#42A5B2"/>
<path d="M20.3126 14.1587L22.1441 13.4928L22.4104 14.2254L20.579 14.8913L20.3126 14.1587Z" fill="#3A4249"/>
<path d="M17.7483 15.0908L18.4804 14.8244L18.7468 15.5566L18.0147 15.8229L17.7483 15.0908Z" fill="#3A4249"/>
<path d="M16.2832 15.624L17.0153 15.3576L17.2817 16.0898L16.5496 16.3562L16.2832 15.624Z" fill="#3A4249"/>
<path d="M14.8186 16.1572L15.5507 15.8908L15.8171 16.623L15.085 16.8894L14.8186 16.1572Z" fill="#3A4249"/>
<path d="M13.3536 16.6904L14.0858 16.4241L14.3521 17.1562L13.62 17.4226L13.3536 16.6904Z" fill="#3A4249"/>
<path d="M11.8885 17.2236L12.6207 16.9573L12.8871 17.6894L12.1549 17.9558L11.8885 17.2236Z" fill="#3A4249"/>
<path d="M10.4236 17.7568L11.1557 17.4905L11.4221 18.2226L10.69 18.489L10.4236 17.7568Z" fill="#3A4249"/>
<path d="M8.95862 18.29L9.69075 18.0237L9.95713 18.7558L9.225 19.0222L8.95862 18.29Z" fill="#3A4249"/>
<path d="M7.49402 18.8242L8.22644 18.5574L8.49326 19.2898L7.76084 19.5566L7.49402 18.8242Z" fill="#3A4249"/>
<path d="M6.02869 19.3574L6.7611 19.0906L7.02793 19.823L6.29551 20.0898L6.02869 19.3574Z" fill="#3A4249"/>
<path d="M14.4935 29.4924H7.86779C6.57811 29.4924 5.5293 28.4436 5.5293 27.1539C5.5293 25.8642 6.57811 24.8154 7.86779 24.8154H10.596V25.5949H7.86779C7.00801 25.5949 6.3088 26.2941 6.3088 27.1539C6.3088 28.0137 7.00801 28.7129 7.86779 28.7129H14.4935V29.4924Z" fill="#3A4249"/>
<path d="M15.2731 28.7129H16.0526V29.4924H15.2731V28.7129Z" fill="#3A4249"/>
<path d="M20.1449 32.2206H7.8678V31.4411H20.1449C20.6824 31.4411 21.1193 31.0038 21.1193 30.4668C21.1193 29.9297 20.6824 29.4924 20.1449 29.4924H16.832V28.7129H20.1449C21.1119 28.7129 21.8988 29.4998 21.8988 30.4668C21.8988 31.4337 21.1119 32.2206 20.1449 32.2206Z" fill="#3A4249"/>
<path d="M3.1908 31.4409H7.08829V32.2204H3.1908V31.4409Z" fill="#3A4249"/>
<path d="M2.41131 33.0001C3.05707 33.0001 3.58056 32.4766 3.58056 31.8309C3.58056 31.1851 3.05707 30.6616 2.41131 30.6616C1.76556 30.6616 1.24207 31.1851 1.24207 31.8309C1.24207 32.4766 1.76556 33.0001 2.41131 33.0001Z" fill="#EFBC2E"/>
<path d="M11.3755 26.3741C12.0213 26.3741 12.5448 25.8507 12.5448 25.2049C12.5448 24.5591 12.0213 24.0356 11.3755 24.0356C10.7298 24.0356 10.2063 24.5591 10.2063 25.2049C10.2063 25.8507 10.7298 26.3741 11.3755 26.3741Z" fill="#EFBC2E"/>
</svg>
