<svg width="30" height="31" viewBox="0 0 30 31" fill="none" xmlns="http://www.w3.org/2000/svg">
<mask id="mask0_88_267" style="mask-type:luminance" maskUnits="userSpaceOnUse" x="0" y="13" width="24" height="18">
<path d="M0 13H24V31H0V13Z" fill="white"/>
</mask>
<g mask="url(#mask0_88_267)">
<path fill-rule="evenodd" clip-rule="evenodd" d="M0 13V31H24V13H0Z" fill="#F7FCFF"/>
<mask id="mask1_88_267" style="mask-type:luminance" maskUnits="userSpaceOnUse" x="0" y="13" width="24" height="18">
<path fill-rule="evenodd" clip-rule="evenodd" d="M0 13V31H24V13H0Z" fill="white"/>
</mask>
<g mask="url(#mask1_88_267)">
<path fill-rule="evenodd" clip-rule="evenodd" d="M12 26.6645C14.402 26.6645 16.3492 24.5966 16.3492 22.0457C16.3492 19.4947 14.402 17.4268 12 17.4268C9.59786 17.4268 7.65063 19.4947 7.65063 22.0457C7.65063 24.5966 9.59786 26.6645 12 26.6645Z" fill="#3D58DB"/>
<mask id="mask2_88_267" style="mask-type:luminance" maskUnits="userSpaceOnUse" x="7" y="17" width="10" height="10">
<path fill-rule="evenodd" clip-rule="evenodd" d="M12 26.6645C14.402 26.6645 16.3492 24.5966 16.3492 22.0457C16.3492 19.4947 14.402 17.4268 12 17.4268C9.59786 17.4268 7.65063 19.4947 7.65063 22.0457C7.65063 24.5966 9.59786 26.6645 12 26.6645Z" fill="white"/>
</mask>
<g mask="url(#mask2_88_267)">
<path fill-rule="evenodd" clip-rule="evenodd" d="M16.5014 22.3997C16.5014 22.3997 16.2573 20.2217 14.4493 20.1034C12.6413 19.9852 12.1538 21.7006 12.0495 22.1551C11.9452 22.6096 11.6811 23.822 9.77747 23.822C7.8739 23.822 7.70215 20.7392 7.70215 20.7392V17.104H16.5014V22.3997Z" fill="#E31D1C"/>
</g>
<path fill-rule="evenodd" clip-rule="evenodd" d="M5.47451 14.5386L6.16073 15.1592L2.98053 18.8731L2.29431 18.2525L5.47451 14.5386ZM6.60625 15.5429L7.29247 16.1636L4.22627 19.8237L3.54005 19.2031L6.60625 15.5429ZM8.41905 17.1803L7.7328 16.5597L4.65809 20.2476L5.34431 20.8683L8.41905 17.1803Z" fill="#272727"/>
<path fill-rule="evenodd" clip-rule="evenodd" d="M19.0227 14.2788L18.3363 14.8971L19.5268 16.2943L20.2132 15.6759L19.0227 14.2788ZM21.1389 16.8488L20.4525 17.4671L21.6431 18.8642L22.3294 18.2459L21.1389 16.8488ZM16.0708 16.9095L16.7572 16.2912L17.9478 17.6883L17.2614 18.3066L16.0708 16.9095ZM18.8734 18.8612L18.187 19.4795L19.3776 20.8766L20.064 20.2583L18.8734 18.8612ZM17.2465 15.8733L17.9329 15.255L21.2469 19.2906L20.5605 19.909L17.2465 15.8733Z" fill="#272727"/>
<path fill-rule="evenodd" clip-rule="evenodd" d="M19.5412 23.6818L18.8491 23.061L17.6485 24.4636L18.3406 25.0844L19.5412 23.6818ZM17.5227 26.1501L16.8305 25.5293L15.63 26.9319L16.3221 27.5526L17.5227 26.1501ZM21.0349 25.0241L21.727 25.6448L20.5265 27.0474L19.8343 26.4267L21.0349 25.0241ZM19.8072 28.1703L19.1151 27.5496L17.9145 28.9521L18.6067 29.5728L19.8072 28.1703ZM17.9749 26.483L18.6671 27.1038L17.4138 28.6014L16.7217 27.9807L17.9749 26.483ZM20.7231 24.6081L20.031 23.9874L18.7778 25.4851L19.4699 26.1058L20.7231 24.6081Z" fill="#272727"/>
<path fill-rule="evenodd" clip-rule="evenodd" d="M4.80503 24.1673L5.49144 23.5483L8.5549 27.0586L7.8685 27.6776L4.80503 24.1673ZM5.51963 27.2376L6.20603 26.6185L7.50001 28.0402L6.81361 28.6592L5.51963 27.2376ZM3.23218 25.518L2.54578 26.137L5.62513 29.6945L6.31153 29.0755L3.23218 25.518ZM3.72057 25.114L4.40697 24.4951L5.52872 25.8105L4.84232 26.4295L3.72057 25.114Z" fill="#272727"/>
</g>
</g>
<path d="M16.2894 8.85667L13.3569 0.799766L15.5543 0L20.6842 7.25753L16.2894 8.85667Z" fill="#42A5B2"/>
<path d="M7.33289 10.4579L24.941 4.04922C25.3861 3.88708 25.8807 3.93619 26.2852 4.18251L27.7764 5.09063C28.5855 4.79637 29.4804 5.2134 29.7747 6.02252C30.0693 6.83164 29.6523 7.72612 28.8428 8.02077L16.3907 12.5528L8.13265 12.6553L7.33289 10.4579Z" fill="#62C4C3"/>
<path d="M7.46507 6.26221L6 6.79538L7.33294 10.4579L10.2631 9.39151L7.46507 6.26221Z" fill="#42A5B2"/>
<path d="M16.8229 10.3217L19.755 18.379L21.9531 17.5792L21.2173 8.72217L16.8229 10.3217Z" fill="#42A5B2"/>
<path d="M25.3126 5.15869L27.1441 4.4928L27.4104 5.22538L25.579 5.89126L25.3126 5.15869Z" fill="#3A4249"/>
<path d="M22.7483 6.09082L23.4804 5.82444L23.7468 6.55657L23.0147 6.82295L22.7483 6.09082Z" fill="#3A4249"/>
<path d="M21.2832 6.62402L22.0153 6.35765L22.2817 7.08977L21.5496 7.35615L21.2832 6.62402Z" fill="#3A4249"/>
<path d="M19.8186 7.15723L20.5507 6.89085L20.8171 7.62298L20.085 7.88936L19.8186 7.15723Z" fill="#3A4249"/>
<path d="M18.3536 7.69043L19.0858 7.42405L19.3521 8.15618L18.62 8.42256L18.3536 7.69043Z" fill="#3A4249"/>
<path d="M16.8885 8.22363L17.6207 7.95726L17.8871 8.68938L17.1549 8.95576L16.8885 8.22363Z" fill="#3A4249"/>
<path d="M15.4236 8.75684L16.1557 8.49046L16.4221 9.22259L15.69 9.48897L15.4236 8.75684Z" fill="#3A4249"/>
<path d="M13.9586 9.29004L14.6907 9.02366L14.9571 9.75579L14.225 10.0222L13.9586 9.29004Z" fill="#3A4249"/>
<path d="M12.494 9.82422L13.2264 9.5574L13.4933 10.2898L12.7608 10.5566L12.494 9.82422Z" fill="#3A4249"/>
<path d="M11.0287 10.3574L11.7611 10.0906L12.0279 10.823L11.2955 11.0898L11.0287 10.3574Z" fill="#3A4249"/>
<path d="M19.4935 20.4924H12.8678C11.5781 20.4924 10.5293 19.4436 10.5293 18.1539C10.5293 16.8642 11.5781 15.8154 12.8678 15.8154H15.596V16.5949H12.8678C12.008 16.5949 11.3088 17.2941 11.3088 18.1539C11.3088 19.0137 12.008 19.7129 12.8678 19.7129H19.4935V20.4924Z" fill="#3A4249"/>
<path d="M20.2731 19.7129H21.0526V20.4924H20.2731V19.7129Z" fill="#3A4249"/>
<path d="M25.1449 23.2206H12.8678V22.4411H25.1449C25.6824 22.4411 26.1193 22.0038 26.1193 21.4668C26.1193 20.9297 25.6824 20.4924 25.1449 20.4924H21.832V19.7129H25.1449C26.1119 19.7129 26.8988 20.4998 26.8988 21.4668C26.8988 22.4337 26.1119 23.2206 25.1449 23.2206Z" fill="#3A4249"/>
<path d="M8.1908 22.4409H12.0883V23.2204H8.1908V22.4409Z" fill="#3A4249"/>
<path d="M7.41131 24.0001C8.05707 24.0001 8.58056 23.4766 8.58056 22.8309C8.58056 22.1851 8.05707 21.6616 7.41131 21.6616C6.76556 21.6616 6.24207 22.1851 6.24207 22.8309C6.24207 23.4766 6.76556 24.0001 7.41131 24.0001Z" fill="#EFBC2E"/>
<path d="M16.3755 17.3741C17.0213 17.3741 17.5448 16.8507 17.5448 16.2049C17.5448 15.5591 17.0213 15.0356 16.3755 15.0356C15.7298 15.0356 15.2063 15.5591 15.2063 16.2049C15.2063 16.8507 15.7298 17.3741 16.3755 17.3741Z" fill="#EFBC2E"/>
</svg>
