<svg width="19" height="30" viewBox="0 0 19 30" fill="none" xmlns="http://www.w3.org/2000/svg">
<path d="M9.21302 0C4.12482 0 0 4.12482 0 9.21302C0 14.3012 9.21302 29.4817 9.21302 29.4817C9.21302 29.4817 18.426 14.3012 18.426 9.21302C18.426 4.12482 14.3012 0 9.21302 0ZM9.21302 1.8426C11.1678 1.8426 13.0425 2.61913 14.4247 4.00135C15.8069 5.38357 16.5834 7.25827 16.5834 9.21302C16.5834 11.1678 15.8069 13.0425 14.4247 14.4247C13.0425 15.8069 11.1678 16.5834 9.21302 16.5834C7.25827 16.5834 5.38357 15.8069 4.00135 14.4247C2.61913 13.0425 1.8426 11.1678 1.8426 9.21302C1.8426 7.25827 2.61913 5.38357 4.00135 4.00135C5.38357 2.61913 7.25827 1.8426 9.21302 1.8426Z" fill="#807EE1"/>
</svg>
