<svg width="28" height="23" viewBox="0 0 28 23" fill="none" xmlns="http://www.w3.org/2000/svg">
<path d="M14.1331 0C6.64085 0 0 4.42723 0 9.53558C0 12.9411 1.87306 15.8359 5.10835 17.5387C8.34363 19.2414 5.10835 17.7089 5.10835 17.7089C4.93807 19.9226 3.57584 20.6037 3.57584 20.6037L0.510835 22.1362H3.9164C8.17336 22.1362 11.2384 20.2631 12.6006 18.9009H13.9628C21.2848 18.9009 27.2445 14.6439 27.2445 9.3653C27.2445 4.08668 21.4551 0 14.1331 0ZM13.9628 17.1981C13.452 17.1981 12.7709 17.1981 12.4303 17.1981H11.9195L11.5789 17.5387C10.7275 18.3901 8.85447 19.9226 5.95974 20.4334C6.47057 19.582 6.81113 18.5603 6.81113 17.0278V16.517L6.3003 16.3467C3.23529 14.8142 1.70278 12.4303 1.70278 9.53558C1.70278 5.4489 7.66252 1.70278 14.1331 1.70278C20.4334 1.70278 25.5417 5.10835 25.5417 9.53558C25.5417 13.6223 20.2631 17.1981 13.9628 17.1981Z" fill="#572DB1"/>
<path d="M6.21578 8.33V8.465C6.21578 8.94 5.72578 9.46 4.70578 9.585L4.95078 10.105C6.12578 9.945 6.79078 9.28 6.79078 8.465V8.33H6.21578ZM6.40578 8.33V8.465C6.40578 9.28 7.07078 9.945 8.25078 10.105L8.49078 9.585C7.47078 9.46 6.98078 8.94 6.98078 8.465V8.33H6.40578ZM6.25078 10.75V12.45H6.91078V10.75H6.25078ZM4.50578 10.37V10.9H8.69078V10.37H4.50578ZM4.87578 8.05V8.575H8.31078V8.05H4.87578ZM12.0754 7.815V11.13H12.7454V7.815H12.0754ZM12.5554 9.105V9.65H13.3604V9.105H12.5554ZM10.7854 8.16V8.49C10.7854 9.225 10.2004 9.845 9.06539 10.155L9.34539 10.685C10.7254 10.285 11.4954 9.42 11.4954 8.16H10.7854ZM9.26539 8.16V8.695H11.1454V8.16H9.26539ZM9.75039 11.835V12.365H12.9004V11.835H9.75039ZM9.75039 10.795V12.07H10.4204V10.795H9.75039ZM13.695 10.22V10.745H17.885V10.22H13.695ZM14.165 11.04V11.565H16.71V12.445H17.375V11.04H14.165ZM14.215 9.435V9.94H17.44V9.435H14.215ZM14.215 7.92V9.69H14.875V8.425H17.405V7.92H14.215ZM14.69 8.68V9.165H17.3V8.68H14.69ZM21.2596 7.81V12.44H21.9296V7.81H21.2596ZM21.7546 9.58V10.125H22.5696V9.58H21.7546ZM20.0446 8.29V8.405C20.0446 9.66 19.4696 10.51 18.2546 11.14L18.6246 11.645C20.1646 10.87 20.6946 9.68 20.6946 8.29H20.0446ZM18.5096 8.29V8.825H20.3846V8.29H18.5096Z" fill="#572DB1"/>
</svg>
