<svg width="29" height="29" viewBox="0 0 29 29" fill="none" xmlns="http://www.w3.org/2000/svg">
<path d="M12.2866 28.4468C10.224 28.4468 8.49088 27.0361 7.99948 25.1269H3.43347V14.0605L6.64257 13.9267C8.66158 13.8426 10.3674 12.4018 10.7879 10.4252L12.7467 1.21893C12.8011 0.963441 13.0267 0.780762 13.2879 0.780762H13.9466C15.4745 0.780762 16.7132 2.01942 16.7132 3.54737V10.7405H23.9063C25.1287 10.7405 26.1196 11.7315 26.1196 12.9538C26.1196 14.1762 25.1287 15.1671 23.9063 15.1671H25.013C26.2353 15.1671 27.2263 16.1581 27.2263 17.3804C27.2263 18.6027 26.2353 19.5937 25.013 19.5937C26.2353 19.5937 27.2263 20.5846 27.2263 21.807C27.2263 23.0293 26.2353 24.0202 25.013 24.0202H23.9063C25.1287 24.0202 26.1196 25.0112 26.1196 26.2335C26.1196 27.4559 25.1287 28.4468 23.9063 28.4468H12.2866Z" fill="white"/>
<path fill-rule="evenodd" clip-rule="evenodd" d="M13.1981 1.77465C13.2516 1.51806 13.4777 1.33418 13.7398 1.33418C13.9836 1.33418 14.2236 1.33759 14.4625 1.39461C14.8467 1.48634 15.0533 1.87355 15.0533 2.26858V12.9539C15.0533 13.8589 15.4878 14.6625 16.1596 15.1672C15.4878 15.6719 15.0533 16.4755 15.0533 17.3805C15.0533 18.2855 15.4878 19.089 16.1596 19.5938C15.4878 20.0985 15.0533 20.902 15.0533 21.8071C15.0533 22.7121 15.4878 23.5156 16.1596 24.0203C15.4878 24.5251 15.0533 25.3286 15.0533 26.2336C15.0533 26.8564 15.259 27.4312 15.6064 27.8936H12.2867C10.1475 27.8936 8.41341 26.1595 8.41341 24.0203C8.41341 23.7147 8.16569 23.467 7.86009 23.467C7.55449 23.467 7.30677 23.7147 7.30677 24.0203C7.30677 24.2074 7.31706 24.392 7.33714 24.5737H5.09348C4.78788 24.5737 4.54016 24.8214 4.54016 25.127C4.54016 25.4326 4.78788 25.6803 5.09348 25.6803H7.59012C8.27375 27.6145 10.1184 29.0002 12.2867 29.0002H24.4597C25.9877 29.0002 27.2263 27.7616 27.2263 26.2336C27.2263 25.5305 26.964 24.8886 26.5319 24.4005C27.5838 24.0087 28.333 22.9954 28.333 21.8071C28.333 20.902 27.8984 20.0985 27.2266 19.5938C27.8984 19.089 28.333 18.2855 28.333 17.3805C28.333 16.1922 27.5838 15.1788 26.5319 14.787C26.964 14.2989 27.2263 13.6571 27.2263 12.9539C27.2263 11.426 25.9877 10.1873 24.4597 10.1873H17.2665V3.54747C17.2665 1.57728 15.6207 0.227539 13.7398 0.227539C12.9535 0.227539 12.2751 0.779189 12.1147 1.54894L10.2658 10.424C9.8916 12.2201 8.30861 13.5072 6.47396 13.5072H5.09348C4.78788 13.5072 4.54016 13.755 4.54016 14.0606C4.54016 14.3662 4.78788 14.6139 5.09348 14.6139H6.47396C8.83283 14.6139 10.8681 12.959 11.3492 10.6497L13.1981 1.77465ZM17.8199 11.294C16.9031 11.294 16.1599 12.0371 16.1599 12.9539C16.1599 13.8707 16.9031 14.6139 17.8199 14.6139H23.3531C24.2699 14.6139 25.013 13.8707 25.013 12.9539C25.013 12.0371 24.2699 11.294 23.3531 11.294H17.8199ZM17.8199 15.7205C16.9031 15.7205 16.1599 16.4637 16.1599 17.3805C16.1599 18.2973 16.9031 19.0405 17.8199 19.0405H24.4597C25.3765 19.0405 26.1197 18.2973 26.1197 17.3805C26.1197 16.4637 25.3765 15.7205 24.4597 15.7205H17.8199ZM17.8199 20.1471C16.9031 20.1471 16.1599 20.8903 16.1599 21.8071C16.1599 22.7239 16.9031 23.467 17.8199 23.467H24.4597C25.3765 23.467 26.1197 22.7239 26.1197 21.8071C26.1197 20.8903 25.3765 20.1471 24.4597 20.1471H17.8199ZM17.8199 24.5737C16.9031 24.5737 16.1599 25.3168 16.1599 26.2336C16.1599 27.1504 16.9031 27.8936 17.8199 27.8936H23.3531C24.2699 27.8936 25.013 27.1504 25.013 26.2336C25.013 25.3168 24.2699 24.5737 23.3531 24.5737H17.8199Z" fill="#807EE1"/>
<path d="M13.3934 15.7202C13.699 15.7202 13.9468 15.9679 13.9468 16.2735C13.9468 17.8015 12.7081 19.0401 11.1802 19.0401C10.8746 19.0401 10.6268 18.7924 10.6268 18.4868C10.6268 18.1812 10.8746 17.9335 11.1802 17.9335C12.0969 17.9335 12.8401 17.1903 12.8401 16.2735C12.8401 15.9679 13.0878 15.7202 13.3934 15.7202Z" fill="#807EE1"/>
<path fill-rule="evenodd" clip-rule="evenodd" d="M5.09356 12.9539C5.09356 12.0371 4.35039 11.2939 3.4336 11.2939H1.22031C0.914725 11.2939 0.666992 11.5417 0.666992 11.8473V27.3403C0.666992 27.6459 0.914725 27.8936 1.22031 27.8936H3.4336C4.35039 27.8936 5.09356 27.1504 5.09356 26.2336V12.9539ZM2.32696 25.127C2.32696 25.4326 2.57468 25.6803 2.88028 25.6803C3.18588 25.6803 3.4336 25.4326 3.4336 25.127C3.4336 24.8214 3.18588 24.5736 2.88028 24.5736C2.57468 24.5736 2.32696 24.8214 2.32696 25.127Z" fill="#807EE1"/>
</svg>
