<svg width="29" height="29" viewBox="0 0 29 29" fill="none" xmlns="http://www.w3.org/2000/svg">
<path d="M26.0784 0.220703L18.8975 3.93803L12.2423 1.0601L3.14228 1.65967L0.220703 27.2013L9.62913 26.4017L20.0717 29L29 25.7623L26.0784 0.220703ZM25.2836 1.71195L27.9611 25.1186L20.2559 27.9126L20.2132 27.0137L27.0104 24.4476L24.6879 3.05834L19.1983 5.66191L19.1608 4.88199L19.3388 4.79038L25.2836 1.71195ZM19.7019 16.2647C19.8084 16.0383 19.9129 15.7203 19.9628 15.2742C19.9628 15.2742 20.4914 15.3001 21.1418 16.7175C21.1418 16.7175 21.4258 16.6892 21.2843 15.7639C21.2843 15.7639 22.2997 15.3548 21.7519 13.5556C21.7519 13.5556 22.6038 14.7288 22.3208 13.2035C22.3208 13.2035 23.2552 12.0581 22.139 11.2964C22.139 11.2964 22.1774 10.4517 22.8484 10.5601C22.8484 10.5601 23.519 8.81612 23.1957 10.8868C23.1957 10.8868 23.2149 11.2964 23.6413 11.7583C23.6413 11.7583 23.825 11.0777 23.4993 10.3438C23.4993 10.3438 24.1704 9.08808 24.109 7.99975C24.109 7.99975 21.9352 8.80605 19.5163 8.56526C19.5163 8.56526 19.6343 8.11534 19.3038 7.86257L19.2361 6.44039L19.2937 6.41305L24.0826 4.14236L26.2353 23.9718L20.1777 26.2593L19.7019 16.2647ZM18.8203 7.82563C18.5704 8.18202 17.8768 9.27803 18.2984 9.9342C18.2984 9.9342 18.0941 11.3554 17.8092 9.28234C17.8092 9.28234 17.3434 10.5059 16.7132 10.233C16.7132 10.233 16.54 11.4715 16.1433 10.6417C16.1433 10.6417 16.4681 10.7784 16.5395 10.3971C16.5395 10.3971 15.6239 9.41617 15.0766 10.8993C15.0766 10.8993 14.6295 11.0772 14.8027 11.7727C14.8027 11.7727 15.1164 11.199 15.2795 12.0725C15.2795 12.0725 15.4526 11.9363 15.5251 10.8182C15.5251 10.8182 15.9596 10.6014 15.6239 11.4849C15.6239 11.4849 16.6196 11.5007 15.0766 12.3838C15.0766 12.3838 14.9912 12.3694 14.924 12.0308C14.924 12.0308 14.6905 12.8462 14.2118 13.1354C14.2118 13.1354 14.324 13.4611 13.9691 13.6108C13.9691 13.6108 13.7767 14.1153 14.2343 14.1153C14.2343 14.1153 14.63 12.9028 15.3821 13.8568C15.3821 13.8568 15.5255 13.8026 15.3015 13.3254C15.3015 13.3254 15.6968 13.4769 15.8498 14.1019C15.8498 14.1019 16.0939 14.0597 16.1328 13.5163C16.1328 13.5163 16.4393 12.8217 16.9376 13.6395C16.9376 13.6395 16.2762 13.4481 16.1045 14.1153C16.1045 14.1153 16.4172 13.9786 16.612 14.17C16.612 14.17 16.6316 14.4813 16.4321 14.6017C16.5184 14.7638 16.612 14.9192 16.7424 15.0507C16.8278 15.1351 16.8249 15.2401 16.7794 15.3207C17.1314 15.9232 17.7818 16.7252 18.237 15.445C18.237 15.445 17.6279 15.7908 17.424 14.8367C17.424 14.8367 18.6534 14.9931 19.2203 16.2263L19.6976 26.2741L10.1371 23.5928L10.2805 22.1745C10.4791 22.6834 10.7117 22.8902 10.7117 22.8902C10.4417 20.6765 12.0389 19.2582 12.0389 19.2582C12.3493 17.7387 11.5602 17.0566 10.8288 16.7496L11.2043 13.0332C11.3549 12.8457 11.4437 12.7205 11.4437 12.7205C11.3895 12.5339 11.3367 12.3704 11.2863 12.2207L11.6504 8.61466C11.9564 8.98736 11.9914 9.32599 11.9056 9.63393C11.5118 11.0504 12.0183 11.4844 12.0183 11.4844C12.3258 10.2882 13.381 10.0973 13.381 10.0973C13.3206 8.97872 13.97 7.70716 13.97 7.70716C13.2635 6.49315 12.2528 7.31192 11.7233 7.89135L11.7646 7.48412C11.873 7.34454 11.9862 7.19249 12.1085 7.01885C12.1085 7.01885 12.0073 6.9493 11.8236 6.89846L12.1459 3.70636L18.7095 6.42696L18.7555 6.44614L18.8203 7.82563ZM11.3463 6.84953C11.0192 6.86488 10.6004 6.9776 10.1078 7.31816C10.1078 7.31816 9.87376 9.46797 11.2178 8.12062L11.0676 9.60803C10.8921 9.02093 10.4757 8.8166 10.4757 8.8166C10.068 9.06314 10.1088 9.38931 10.1088 9.38931C10.4786 9.44495 10.7045 9.89007 10.8374 10.3074C10.7626 10.422 10.6345 10.553 10.4134 10.5745C10.4134 10.5745 10.6709 10.9616 10.9204 11.07L10.893 11.3367C10.3126 10.4671 10.0613 12.2145 10.0613 12.2145C8.62666 10.6158 10.4421 9.81572 10.4421 9.81572C9.33079 9.34614 8.81612 8.00023 8.81612 8.00023C8.76192 8.83627 8.43623 8.79933 8.43623 8.79933C5.88927 7.31048 5.43072 9.70828 5.43072 9.70828C5.83506 10.9784 4.96833 11.1237 4.96833 11.1237C5.80772 11.2686 6.24085 10.1064 6.24085 10.1064C7.97624 10.9784 7.05483 14.1024 7.05483 14.1024C7.73162 14.5005 7.92156 15.8095 7.92156 15.8095C8.39306 15.9524 8.87608 16.2412 9.21471 16.47C9.28043 16.411 9.34806 16.3549 9.41905 16.3026C8.62762 15.7433 8.62618 14.8377 8.62618 14.8377C9.34422 14.8377 10.1078 14.219 10.659 13.6501L10.3616 16.5966C10.2014 16.5568 10.0594 16.5318 9.9553 16.5184C9.82915 16.5793 9.70924 16.6542 9.59748 16.7458C9.63249 16.7726 9.656 16.7913 9.656 16.7913C8.85785 18.3248 9.93707 18.9397 10.116 19.0285L9.65791 23.5612L3.3092 24.0576L5.42688 4.00134L11.671 3.63393L11.3463 6.84953ZM10.0637 24.32L19.7331 27.032L19.7762 27.938L9.94523 25.4918L10.0637 24.32ZM18.6807 4.88966L18.7172 5.65232L12.2217 2.96001L12.3051 2.13213L18.5167 4.81868L18.6807 4.88966ZM4.0047 2.5643L11.8312 2.04867L11.7444 2.90917L4.77551 3.31879L2.50338 24.8428L9.58549 24.2879L9.46749 25.4525L1.30712 26.1465L4.0047 2.5643Z" fill="#807EE1"/>
<path d="M14.6401 16.8252C14.6401 16.8252 15.6579 17.0156 15.2507 18.9769C15.2507 18.9769 15.4133 20.5055 16.3059 20.366C16.3059 20.366 16.5496 18.16 17.6878 16.4702C17.6878 16.4702 17.2264 16.9297 16.7031 15.4059C16.6239 15.4634 16.5165 15.4768 16.4268 15.3876C16.2013 15.1627 16.0651 14.8792 15.9183 14.5943C15.8944 14.5473 15.8905 14.5036 15.8939 14.4614C15.1533 14.1851 13.6534 13.9079 13.4409 16.0889C13.4414 16.0889 13.7249 17.5902 14.6401 16.8252Z" fill="#807EE1"/>
<path d="M14.1738 11.73C14.2439 12.7123 14.3753 13.0107 14.5475 12.6025C14.7206 12.1976 14.1738 11.73 14.1738 11.73Z" fill="#807EE1"/>
<path d="M13.8665 12.6573C13.8665 12.6573 14.1528 12.6151 14.0708 12.2549C14.0708 12.2549 13.8665 12.276 13.8665 12.6573Z" fill="#807EE1"/>
<path d="M13.7562 10.6826C13.7562 10.6826 13.0343 10.6826 13.2895 11.0515C13.5432 11.4194 13.7562 10.6826 13.7562 10.6826Z" fill="#807EE1"/>
<path d="M17.3635 19.6313C17.3635 19.6313 17.5842 19.1814 17.577 18.4878C17.577 18.4878 16.8752 19.2898 17.3635 19.6313Z" fill="#807EE1"/>
<path d="M21.9137 16.812C21.9137 16.812 21.4053 17.2758 21.4983 17.6984C21.5899 18.1224 22.036 17.615 21.9137 16.812Z" fill="#807EE1"/>
<path d="M23.9468 18.3119C24.1698 17.9215 22.7251 17.438 22.7251 17.438C23.0105 17.861 23.7444 18.6601 23.9468 18.3119Z" fill="#807EE1"/>
<path d="M22.3309 18.395C22.67 17.8146 21.3044 18.0923 21.3044 18.0923C21.3044 18.0923 22.199 18.6242 22.3309 18.395Z" fill="#807EE1"/>
<path d="M22.8676 18.516C22.8676 18.516 22.5942 19.1275 21.5782 19.3851C21.5782 19.3851 21.7927 19.8768 21.5782 20.8039C21.5782 20.8039 22.6037 19.4954 23.1947 21.3882C23.1947 21.3882 23.7017 21.6635 24.0571 19.9497C24.0571 19.9497 23.6307 19.3324 23.4887 18.4546C23.4892 18.4541 23.3482 19.5789 22.8676 18.516Z" fill="#807EE1"/>
<path d="M23.068 12.9361C23.1328 12.8819 23.1831 12.8622 23.1831 12.8622C22.6857 12.0578 22.8675 13.2172 22.8675 13.2172C22.8997 13.1409 22.9376 13.0824 22.9764 13.033C23.0028 13.3764 22.9203 13.8882 22.384 14.3746C22.384 14.3746 23.5338 13.941 23.068 12.9361Z" fill="#807EE1"/>
<path d="M14.2899 6.91391C14.5408 6.32585 13.7522 5.65625 13.7522 5.65625C13.8534 7.06979 14.0409 7.50148 14.2899 6.91391Z" fill="#807EE1"/>
<path d="M13.3096 6.99157C13.3096 6.99157 13.7178 6.93113 13.6022 6.41406C13.6022 6.41406 13.3096 6.44332 13.3096 6.99157Z" fill="#807EE1"/>
</svg>
