<svg width="12" height="12" viewBox="0 0 12 12" fill="none" xmlns="http://www.w3.org/2000/svg">
<path d="M1.45 3.57495C1.575 3.44995 1.723 3.38745 1.894 3.38745C2.065 3.38745 2.21283 3.44995 2.3375 3.57495L6 7.23745L9.675 3.56245C9.79167 3.44578 9.9375 3.38745 10.1125 3.38745C10.2875 3.38745 10.4375 3.44995 10.5625 3.57495C10.6875 3.69995 10.75 3.84795 10.75 4.01895C10.75 4.18995 10.6875 4.33778 10.5625 4.46245L6.35 8.66245C6.3 8.71245 6.24583 8.74795 6.1875 8.76895C6.12917 8.78995 6.06667 8.80029 6 8.79995C5.93333 8.79995 5.87083 8.78945 5.8125 8.76845C5.75417 8.74745 5.7 8.71212 5.65 8.66245L1.4375 4.44995C1.32083 4.33328 1.2625 4.18945 1.2625 4.01845C1.2625 3.84745 1.325 3.69962 1.45 3.57495Z" fill="#5C33B3"/>
</svg>
