<svg width="15" height="15" viewBox="0 0 15 15" fill="none" xmlns="http://www.w3.org/2000/svg">
<path d="M13.5149 12.9008H1.22852V11.6722H1.84284V2.45734C1.84284 2.29441 1.90756 2.13816 2.02277 2.02295C2.13797 1.90774 2.29423 1.84302 2.45716 1.84302H11.0577C11.2206 1.84302 11.3768 1.90774 11.492 2.02295C11.6073 2.13816 11.672 2.29441 11.672 2.45734V5.52894H12.9006V11.6722H13.5149V12.9008ZM10.4433 11.6722H11.672V6.75759H7.98605V11.6722H9.21469V7.98623H10.4433V11.6722ZM10.4433 5.52894V3.07166H3.07148V11.6722H6.75741V5.52894H10.4433ZM4.30012 6.75759H5.52876V7.98623H4.30012V6.75759ZM4.30012 9.21487H5.52876V10.4435H4.30012V9.21487ZM4.30012 4.3003H5.52876V5.52894H4.30012V4.3003Z" fill="#666666"/>
</svg>
