<svg width="19" height="18" viewBox="0 0 19 18" fill="none" xmlns="http://www.w3.org/2000/svg">
<path d="M13.5471 5.5891C13.5471 6.79586 14.5439 7.77414 15.7735 7.77414C17.0032 7.77414 18 6.79586 18 5.5891C18 4.38233 17.0032 3.40405 15.7735 3.40405C14.5439 3.40405 13.5471 4.38233 13.5471 5.5891Z" stroke="#5C33B3"/>
<path d="M1.12031 5.5891C1.12031 6.79586 2.11713 7.77414 3.34677 7.77414C4.57642 7.77414 5.57324 6.79586 5.57324 5.5891C5.57324 4.38233 4.57642 3.40405 3.34677 3.40405C2.11713 3.40405 1.12031 4.38233 1.12031 5.5891Z" stroke="#5C33B3"/>
<path d="M7.33369 12.8798C7.33369 14.1094 8.33051 15.1063 9.56015 15.1063C10.7898 15.1063 11.7866 14.1094 11.7866 12.8798C11.7866 11.6501 10.7898 10.6533 9.56015 10.6533C8.33051 10.6533 7.33369 11.6501 7.33369 12.8798Z" stroke="#5C33B3"/>
<path d="M16.3428 0.297363V3.40406H15.3072V0.297363L16.3428 0.297363Z" fill="#5C33B3"/>
<path d="M16.3428 9.61743V17.902H15.3072V9.61743H16.3428Z" fill="#5C33B3"/>
<path d="M10.1294 0.297363V8.58189H9.09383V0.297363L10.1294 0.297363Z" fill="#5C33B3"/>
<path d="M10.1294 14.7954V17.9021H9.09383V14.7954H10.1294Z" fill="#5C33B3"/>
<path d="M3.91626 0.297363V3.40406H2.88069V0.297363L3.91626 0.297363Z" fill="#5C33B3"/>
<path d="M3.91626 9.61743L3.91626 17.902H2.88069L2.88069 9.61743H3.91626Z" fill="#5C33B3"/>
</svg>
