<svg width="14" height="8" viewBox="0 0 14 8" fill="none" xmlns="http://www.w3.org/2000/svg">
<path d="M13.0666 7.2334C12.9 7.40007 12.7026 7.4834 12.4746 7.4834C12.2466 7.4834 12.0495 7.40007 11.8833 7.2334L6.99996 2.35007L2.09996 7.25007C1.9444 7.40562 1.74996 7.4834 1.51663 7.4834C1.28329 7.4834 1.08329 7.40007 0.916626 7.2334C0.749959 7.06673 0.666626 6.8694 0.666626 6.6414C0.666626 6.4134 0.749959 6.21629 0.916626 6.05007L6.53329 0.450065C6.59996 0.383398 6.67218 0.336065 6.74996 0.308065C6.82774 0.280065 6.91107 0.266287 6.99996 0.266732C7.08885 0.266732 7.17218 0.280732 7.24996 0.308732C7.32774 0.336732 7.39996 0.383843 7.46663 0.450065L13.0833 6.06673C13.2388 6.22229 13.3166 6.41407 13.3166 6.64207C13.3166 6.87007 13.2333 7.06718 13.0666 7.2334Z" fill="#9B9B9B"/>
</svg>
